<svg xmlns="http://www.w3.org/2000/svg" viewBox="0 0 177 211.2"><defs/><path fill="#ff4655" d="M131 97l11 3c18 9 30 22 34 42 4 23-4 44-23 58-11 8-23 11-37 11H59l-7-2c-4-3-5-6-3-10 1-5 4-7 9-7h63c19-1 35-17 36-36 1-20-13-36-32-40H69h-2v25c0 2 1 3 3 3h32l5-2c7-7 14-6 20-2 7 5 9 14 5 21-4 9-17 12-24 5-2-2-5-3-8-3H58c-7 0-10-3-10-9v-48c0-6 2-9 9-10h31a38 38 0 008-75H11C6 20 0 16 0 10 0 5 5 0 11 0h77c26 1 49 17 56 43 5 18 1 35-10 50l-3 4zM72 68l3 1c5 4 10 7 16 5 7-2 12-7 13-14 0-7-3-13-10-17-4-2-13-2-18 3-2 2-4 2-6 2H10c-5 1-9 4-10 9v143c0 4 1 8 5 10 8 3 15-1 15-10v-22V73v-5h52z"/></svg>