<svg xmlns="http://www.w3.org/2000/svg" baseProfile="tiny" version="1.2" height="256" width="256" viewBox="0 0 349.3 349.3"><defs/><linearGradient id="a" x1="38.9" x2="310.4" y1="310.4" y2="38.9" gradientUnits="userSpaceOnUse"><stop offset="0" stop-color="#0f1031"/><stop offset="1" stop-color="#1d3a4b"/></linearGradient><path fill="url(#a)" d="M216 349h-83C60 349 0 290 0 216v-83C0 60 60 0 133 0h83c74 0 133 60 133 133v83c0 74-59 133-133 133z"/><linearGradient id="b" x1="115.7" x2="243.5" y1="234.4" y2="106.7" gradientUnits="userSpaceOnUse"><stop offset="0" stop-color="#ef3a56"/><stop offset="1" stop-color="#f37161"/></linearGradient><path fill="url(#b)" d="M230 166l9 4c18 7 29 21 33 39 4 22-4 42-22 55-10 8-22 11-34 11h-55l-7-2c-4-3-4-6-3-10s4-6 8-6l31-1h29c18 0 34-16 35-34s-13-34-31-38h-54v24c0 2 1 3 3 3h30l5-2c7-6 13-5 19-2 7 5 8 13 5 20-4 9-17 11-23 5-2-2-5-3-8-3h-40c-6 0-10-3-10-9v-45c0-6 3-9 9-9l29-1c23 0 39-19 36-41-2-15-14-26-28-30h-80c-6 0-11-5-11-10s5-10 11-10h72c25 1 47 16 54 41 5 17 1 33-10 48l-2 3z"/><linearGradient id="c" x1="73.6" x2="196.1" y1="238.3" y2="115.8" gradientUnits="userSpaceOnUse"><stop offset="0" stop-color="#ef3a56"/><stop offset="1" stop-color="#f37161"/></linearGradient><path fill="url(#c)" d="M124 139v125c0 9-7 13-14 10-4-2-5-6-5-10v-35-95-6c1-4 4-8 9-8h57c2 0 4 0 6-2 5-5 14-5 17-3 7 4 10 9 9 16 0 7-5 12-12 14-6 1-10-1-15-5l-2-1h-50z"/></svg>